<svg xmlns="http://www.w3.org/2000/svg" xmlns:xlink="http://www.w3.org/1999/xlink" xml:space="preserve" version="1.1" style="shape-rendering:geometricPrecision; text-rendering:geometricPrecision; image-rendering:optimizeQuality; fill-rule:evenodd; clip-rule:evenodd" viewBox="1387 1306.96 2669 1316.04">
 <defs>
  <style type="text/css">
   <![CDATA[
    .fil0 {fill:#FEFEFE}
    .fil1 {fill:#FEFEFE;fill-rule:nonzero}
   ]]>
  </style>
 </defs>
 <g id="Layer_x0020_1">
  <metadata id="CorelCorpID_0Corel-Layer"/>
  <g id="_1344999135872">
   <path class="fil0" d="M1387 2349l239 0c-100,-21 -175,-85 -215,-173 -11,-24 -19,-50 -24,-75l0 248zm393 0l434 0 0 -315c-95,129 -195,218 -300,270 -45,21 -90,36 -134,45zm434 -397l0 -193 -211 194 -77 -86c97,-75 199,-146 268,-249 98,-151 28,-314 -91,-311 -294,9 -586,475 -548,734 6,40 20,77 45,109 93,124 323,100 614,-198zm-428 -642l-399 0 0 636c24,-149 103,-296 191,-416 61,-85 132,-161 208,-220z"/>
   <path class="fil0" d="M2455 2125l0 -2c0,-11 -3,-18 -8,-23 -5,-5 -11,-8 -22,-8l-44 0c-19,0 -32,3 -37,11 -4,6 -7,20 -7,42l0 36c0,20 3,34 9,40 5,8 17,11 35,11l31 0c19,0 30,-3 35,-7 6,-5 9,-16 9,-30l0 -3 55 0c0,2 0,2 0,3 0,8 0,14 0,17 0,17 -1,31 -3,43 -3,11 -8,20 -14,27 -6,6 -14,10 -24,13 -9,3 -23,5 -44,5l-61 0c-19,0 -32,-2 -41,-5 -9,-3 -17,-9 -24,-15 -6,-9 -12,-20 -15,-32 -4,-13 -5,-28 -5,-47l0 -73c0,-37 6,-65 19,-80 12,-14 34,-22 66,-22l61 0c21,0 35,0 44,3 10,3 18,8 23,14 6,6 11,15 12,26 3,11 5,25 5,42 0,3 0,6 0,7 0,3 0,5 0,7l-55 0zm173 175c-20,0 -36,-2 -46,-5 -9,-3 -19,-7 -23,-15 -8,-8 -13,-17 -16,-29 -3,-13 -5,-30 -5,-50l0 -73c0,-22 2,-40 5,-53 3,-14 8,-23 16,-30 4,-8 14,-13 23,-16 10,-1 26,-3 46,-3l65 0c20,0 36,2 45,3 11,3 19,8 25,16 7,7 12,16 15,30 3,13 4,30 4,50l0 75c0,20 -1,37 -4,49 -3,14 -8,23 -15,31 -6,8 -14,12 -23,15 -11,3 -27,5 -47,5l-65 0zm16 -68l34 0c19,0 32,-3 40,-11 6,-7 9,-20 9,-40l0 -38c0,-18 -3,-32 -9,-40 -8,-8 -21,-11 -40,-11l-36 0c-19,0 -31,3 -38,11 -6,8 -9,22 -9,42l0 36c0,20 3,34 9,40 7,8 19,11 40,11zm316 -137l-88 0 0 65 88 0c7,0 13,-2 15,-6 3,-6 4,-16 4,-28 0,-11 -1,-18 -4,-23 -4,-5 -8,-8 -15,-8zm2 -66c28,0 47,6 58,19 11,12 16,35 16,69 0,23 -3,40 -6,51 -5,10 -13,18 -24,23 10,3 16,9 21,17 4,9 7,20 7,33l0 54 -55 0 0 -40c0,-10 -1,-18 -4,-21 -4,-5 -11,-6 -21,-6l-82 0 0 67 -55 0 0 -266 145 0zm195 271c-22,0 -38,-2 -47,-5 -9,-3 -17,-7 -24,-15 -6,-8 -12,-17 -14,-29 -3,-13 -4,-30 -4,-50l0 -73c0,-22 1,-40 4,-53 2,-14 8,-23 14,-30 7,-8 15,-13 24,-16 11,-1 27,-3 47,-3l65 0c20,0 36,2 46,3 9,3 18,8 23,16 8,7 13,16 16,30 3,13 5,30 5,50l0 75c0,20 -2,37 -5,49 -3,14 -8,23 -16,31 -6,8 -14,12 -23,15 -10,3 -26,5 -46,5l-65 0zm14 -68l35 0c21,0 33,-3 40,-11 6,-7 9,-20 9,-40l0 -38c0,-18 -3,-32 -9,-40 -7,-8 -19,-11 -40,-11l-35 0c-20,0 -33,3 -39,11 -6,8 -9,22 -9,42l0 36c0,20 3,34 9,40 8,8 21,11 39,11zm418 63l-80 0 -109 -194 0 194 -55 0 0 -266 82 0 107 196 0 -196 55 0 0 266zm233 -201l-143 0 0 40 135 0 0 57 -135 0 0 40 145 0 0 64 -200 0 0 -266 198 0 0 65zm151 201l-55 0 0 -201 -75 0 0 -65 206 0 0 65 -76 0 0 201z"/>
   <polygon class="fil0" points="4056,2376 2317,2376 2317,2340 4056,2340 "/>
   <path class="fil1" d="M1406 2621l0 -163 97 0 0 37 -62 0 0 28 60 0 0 31 -60 0 0 30 63 0 0 37 -98 0zm135 0l0 -163 51 0 40 121 0 -121 33 0 0 163 -51 0 -40 -122 0 122 -33 0zm274 -112l-34 0c0,-5 -2,-9 -5,-11 -2,-2 -7,-3 -13,-3l-9 0c-8,0 -13,1 -16,5 -2,4 -3,12 -3,26l0 27c0,14 1,22 3,26 3,4 8,5 16,5l10 0c6,0 11,-1 14,-3 2,-3 4,-7 4,-13l0 -6 -20 0 0 -30 53 0 0 27c0,22 -4,38 -11,48 -8,11 -20,16 -36,16l-24 0c-14,0 -25,-6 -32,-18 -8,-11 -12,-28 -12,-51l0 -25c0,-25 4,-43 12,-55 8,-12 20,-18 37,-18l19 0c14,0 25,5 34,13 9,9 13,20 13,33l0 7zm37 112l0 -163 34 0 0 163 -34 0zm75 0l0 -163 51 0 40 121 0 -121 33 0 0 163 -52 0 -39 -122 0 122 -33 0zm163 0l0 -163 97 0 0 37 -62 0 0 28 60 0 0 31 -60 0 0 30 63 0 0 37 -98 0zm135 0l0 -163 96 0 0 37 -62 0 0 28 60 0 0 31 -60 0 0 30 64 0 0 37 -98 0zm169 -84l19 0c6,0 10,-1 12,-4 2,-3 3,-7 3,-14l0 -6c0,-7 -1,-12 -3,-15 -2,-2 -6,-3 -12,-3l-19 0 0 42zm-35 84l0 -163 52 0c20,0 33,4 41,10 7,7 11,18 11,35l0 13c0,11 -2,20 -7,26 -4,6 -10,10 -18,11 9,2 15,5 19,11 4,5 6,13 6,23l0 34 -35 0 0 -30c0,-6 -1,-11 -4,-14 -2,-2 -6,-4 -11,-4l-19 0 0 48 -35 0zm135 -51l33 0 0 2c0,6 1,10 3,12 3,3 7,4 14,4l8 0c5,0 9,-1 11,-3 2,-2 3,-5 3,-9l0 -7c0,-4 -1,-7 -2,-9 -2,-1 -6,-3 -12,-3l-27 -4c-11,-2 -18,-6 -23,-13 -5,-6 -7,-16 -7,-30l0 -10c0,-7 1,-14 2,-20 2,-6 5,-11 9,-15 3,-3 7,-5 11,-7 4,-1 11,-2 20,-2l20 0c13,0 23,4 30,10 7,7 10,16 10,29l0 11 -33 0 0 -2c0,-5 -1,-8 -3,-10 -2,-2 -5,-3 -10,-3l-7 0c-6,0 -10,1 -12,2 -2,2 -3,5 -3,9l0 7c0,6 5,9 14,11l0 0 25 3c11,2 20,6 25,12 5,7 8,16 8,28l0 15c0,14 -3,24 -10,32 -6,9 -15,13 -26,13l-28 0c-15,0 -26,-4 -33,-10 -7,-7 -10,-17 -10,-31l0 -12zm203 51l0 -163 60 0c17,0 29,5 36,13 8,8 11,22 11,41l0 11c0,19 -3,33 -11,42 -7,8 -19,12 -36,12l-26 0 0 44 -34 0zm34 -80l24 0c6,0 10,-1 11,-4 2,-2 3,-7 3,-15l0 -9c0,-7 -1,-11 -3,-14 -3,-3 -7,-4 -12,-4l-23 0 0 46zm96 -83l37 0 25 127 26 -127 36 0 -36 163 -52 0 -36 -163zm179 163l0 -126 -33 0 0 -37 101 0 0 37 -33 0 0 126 -35 0zm77 0l0 -39 28 0 0 39 -28 0zm134 0l0 -163 34 0 0 125 58 0 0 38 -92 0zm122 0l0 -163 35 0 0 163 -35 0zm178 -163l50 0 0 163 -33 0 0 -120 -26 120 -35 0 -26 -121 0 121 -33 0 0 -163 50 0 26 118 27 -118zm91 163l0 -163 34 0 0 163 -34 0zm100 0l0 -126 -33 0 0 -37 101 0 0 37 -33 0 0 126 -35 0zm99 0l0 -163 97 0 0 37 -62 0 0 28 60 0 0 31 -60 0 0 30 63 0 0 37 -98 0zm135 0l0 -163 65 0c18,0 31,5 38,15 8,9 11,26 11,50l0 33c0,24 -3,41 -11,50 -7,10 -20,15 -38,15l-65 0zm34 -37l26 0c8,0 13,-1 15,-5 3,-3 4,-12 4,-26l0 -27c0,-14 -1,-22 -4,-26 -2,-4 -7,-5 -15,-5l-26 0 0 89z"/>
  </g>
 </g>
</svg>